<?xml version="1.0" standalone="no"?><svg xmlns:xlink="http://www.w3.org/1999/xlink" xmlns="http://www.w3.org/2000/svg" viewBox="0 0 1600 738.4662623781376" preserveAspectRatio="xMaxYMax slice"><g transform="scale(1.5352728947570429)"><rect x="0" y="0" width="1042.1666666666667" height="481" fill="#1e1e1e"/><rect x="0" y="80.16666666666667" width="80.16666666666667" height="80.16666666666667" fill="#1e1e1e"/><rect x="0" y="160.33" width="80.17" height="80.17" fill="#272727"/><polygon points="80.17,160.33 80.17,240.5 0,240.5" fill="#2a2a2a"/><rect x="160.33333333333334" y="160.33333333333334" width="80.16666666666667" height="80.16666666666667" fill="#1e1e1e"/><rect x="160.33" y="200.42" width="40.08" height="40.08" fill="#2c2c2c"/><polygon points="200.41000000000003,200.42 200.41000000000003,240.5 160.33,240.5" fill="#292929"/><rect x="481" y="160.33333333333334" width="80.16666666666667" height="80.16666666666667" fill="#1e1e1e"/><rect x="721.5" y="160.33" width="80.17" height="80.17" fill="#232323"/><polygon points="721.5,160.33 801.67,240.5 721.5,240.5" fill="#333333"/><rect x="801.67" y="160.33" width="80.17" height="80.17" fill="#1f1f1f"/><polygon points="801.67,160.33 881.8399999999999,160.33 801.67,240.5" fill="#212121"/><rect x="881.8333333333334" y="160.33333333333334" width="80.16666666666667" height="80.16666666666667" fill="#1e1e1e"/><rect x="962" y="160.33333333333334" width="80.16666666666667" height="80.16666666666667" fill="#1e1e1e"/><rect x="962" y="160.33" width="40.08" height="40.08" fill="#1f1f1f"/><polygon points="962,160.33 1002.08,200.41000000000003 962,200.41000000000003" fill="#313131"/><rect x="962" y="200.42" width="40.08" height="40.08" fill="#2a2a2a"/><polygon points="962,200.42 1002.08,200.42 962,240.5" fill="#212121"/><rect x="1002.08" y="200.42" width="40.08" height="40.08" fill="#323232"/><polygon points="1002.08,200.42 1042.16,240.5 1002.08,240.5" fill="#202020"/><rect x="0" y="240.5" width="80.17" height="80.17" fill="#2f2f2f"/><polygon points="0,240.5 80.17,320.67 0,320.67" fill="#282828"/><rect x="80.16666666666667" y="240.5" width="80.16666666666667" height="80.16666666666667" fill="#1e1e1e"/><rect x="80.17" y="240.5" width="40.08" height="40.08" fill="#313131"/><polygon points="80.17,240.5 120.25,280.58 80.17,280.58" fill="#2b2b2b"/><rect x="120.25" y="240.5" width="40.08" height="40.08" fill="#2e2e2e"/><polygon points="120.25,240.5 160.32999999999998,240.5 120.25,280.58" fill="#2b2b2b"/><rect x="160.33333333333334" y="240.5" width="80.16666666666667" height="80.16666666666667" fill="#1e1e1e"/><rect x="160.33" y="240.5" width="40.08" height="40.08" fill="#2a2a2a"/><polygon points="160.33,240.5 200.41000000000003,240.5 200.41000000000003,280.58" fill="#2d2d2d"/><rect x="200.42" y="240.5" width="40.08" height="40.08" fill="#262626"/><polygon points="240.5,240.5 240.5,280.58 200.42,280.58" fill="#1f1f1f"/><rect x="200.42" y="280.58" width="40.08" height="40.08" fill="#252525"/><polygon points="240.5,280.58 240.5,320.65999999999997 200.42,320.65999999999997" fill="#2a2a2a"/><rect x="320.6666666666667" y="240.5" width="80.16666666666667" height="80.16666666666667" fill="#1e1e1e"/><rect x="320.67" y="240.5" width="40.08" height="40.08" fill="#2c2c2c"/><polygon points="320.67,240.5 360.75,240.5 360.75,280.58" fill="#2d2d2d"/><rect x="360.75" y="240.5" width="40.08" height="40.08" fill="#313131"/><polygon points="360.75,240.5 400.83,240.5 400.83,280.58" fill="#2c2c2c"/><rect x="320.67" y="280.58" width="40.08" height="40.08" fill="#303030"/><polygon points="320.67,280.58 360.75,320.65999999999997 320.67,320.65999999999997" fill="#313131"/><rect x="360.75" y="280.58" width="40.08" height="40.08" fill="#333333"/><polygon points="360.75,280.58 400.83,280.58 360.75,320.65999999999997" fill="#2a2a2a"/><rect x="400.83333333333337" y="240.5" width="80.16666666666667" height="80.16666666666667" fill="#1e1e1e"/><rect x="400.83" y="240.5" width="40.08" height="40.08" fill="#272727"/><polygon points="400.83,240.5 440.90999999999997,280.58 400.83,280.58" fill="#242424"/><rect x="440.92" y="240.5" width="40.08" height="40.08" fill="#212121"/><polygon points="440.92,240.5 481,280.58 440.92,280.58" fill="#2f2f2f"/><rect x="400.83" y="280.58" width="40.08" height="40.08" fill="#232323"/><polygon points="400.83,280.58 440.90999999999997,280.58 400.83,320.65999999999997" fill="#303030"/><rect x="481" y="240.5" width="80.16666666666667" height="80.16666666666667" fill="#1e1e1e"/><rect x="481" y="240.5" width="40.08" height="40.08" fill="#222222"/><polygon points="521.08,240.5 521.08,280.58 481,280.58" fill="#2f2f2f"/><rect x="521.08" y="240.5" width="40.08" height="40.08" fill="#2d2d2d"/><polygon points="521.08,240.5 561.1600000000001,240.5 521.08,280.58" fill="#232323"/><rect x="521.08" y="280.58" width="40.08" height="40.08" fill="#1e1e1e"/><polygon points="521.08,280.58 561.1600000000001,280.58 521.08,320.65999999999997" fill="#252525"/><rect x="721.5" y="240.5" width="80.17" height="80.17" fill="#1f1f1f"/><polygon points="801.67,240.5 801.67,320.67 721.5,320.67" fill="#262626"/><rect x="962" y="240.5" width="80.17" height="80.17" fill="#212121"/><polygon points="1042.17,240.5 1042.17,320.67 962,320.67" fill="#292929"/><rect x="0" y="320.6666666666667" width="80.16666666666667" height="80.16666666666667" fill="#1e1e1e"/><rect x="0" y="320.67" width="40.08" height="40.08" fill="#2e2e2e"/><polygon points="0,320.67 40.08,360.75 0,360.75" fill="#313131"/><rect x="40.08" y="320.67" width="40.08" height="40.08" fill="#323232"/><polygon points="40.08,320.67 80.16,360.75 40.08,360.75" fill="#292929"/><rect x="0" y="360.75" width="40.08" height="40.08" fill="#2c2c2c"/><polygon points="0,360.75 40.08,360.75 0,400.83" fill="#232323"/><rect x="240.5" y="320.6666666666667" width="80.16666666666667" height="80.16666666666667" fill="#1e1e1e"/><rect x="240.5" y="320.67" width="40.08" height="40.08" fill="#323232"/><polygon points="240.5,320.67 280.58,360.75 240.5,360.75" fill="#2d2d2d"/><rect x="280.58" y="320.67" width="40.08" height="40.08" fill="#2e2e2e"/><polygon points="280.58,320.67 320.65999999999997,360.75 280.58,360.75" fill="#222222"/><rect x="240.5" y="360.75" width="40.08" height="40.08" fill="#272727"/><polygon points="280.58,360.75 280.58,400.83 240.5,400.83" fill="#242424"/><rect x="280.58" y="360.75" width="40.08" height="40.08" fill="#242424"/><polygon points="280.58,360.75 320.65999999999997,400.83 280.58,400.83" fill="#282828"/><rect x="320.67" y="320.67" width="80.17" height="80.17" fill="#1e1e1e"/><polygon points="320.67,320.67 400.84000000000003,320.67 320.67,400.84000000000003" fill="#2c2c2c"/><rect x="400.83333333333337" y="320.6666666666667" width="80.16666666666667" height="80.16666666666667" fill="#1e1e1e"/><rect x="400.83" y="320.67" width="40.08" height="40.08" fill="#252525"/><polygon points="400.83,320.67 440.90999999999997,360.75 400.83,360.75" fill="#222222"/><rect x="440.92" y="320.67" width="40.08" height="40.08" fill="#222222"/><polygon points="481,320.67 481,360.75 440.92,360.75" fill="#232323"/><rect x="400.83" y="360.75" width="40.08" height="40.08" fill="#242424"/><polygon points="400.83,360.75 440.90999999999997,400.83 400.83,400.83" fill="#272727"/><rect x="440.92" y="360.75" width="40.08" height="40.08" fill="#303030"/><polygon points="440.92,360.75 481,360.75 481,400.83" fill="#1e1e1e"/><rect x="481" y="320.67" width="80.17" height="80.17" fill="#2f2f2f"/><polygon points="481,320.67 561.17,320.67 561.17,400.84000000000003" fill="#1f1f1f"/><rect x="561.17" y="320.67" width="80.17" height="80.17" fill="#232323"/><polygon points="561.17,320.67 641.3399999999999,320.67 641.3399999999999,400.84000000000003" fill="#313131"/><rect x="641.3333333333334" y="320.6666666666667" width="80.16666666666667" height="80.16666666666667" fill="#1e1e1e"/><rect x="641.33" y="320.67" width="40.08" height="40.08" fill="#292929"/><polygon points="641.33,320.67 681.4100000000001,360.75 641.33,360.75" fill="#1f1f1f"/><rect x="681.42" y="320.67" width="40.08" height="40.08" fill="#2b2b2b"/><polygon points="721.5,320.67 721.5,360.75 681.42,360.75" fill="#2a2a2a"/><rect x="641.33" y="360.75" width="40.08" height="40.08" fill="#1f1f1f"/><polygon points="641.33,360.75 681.4100000000001,360.75 641.33,400.83" fill="#323232"/><rect x="681.42" y="360.75" width="40.08" height="40.08" fill="#333333"/><polygon points="721.5,360.75 721.5,400.83 681.42,400.83" fill="#252525"/><rect x="721.5" y="320.6666666666667" width="80.16666666666667" height="80.16666666666667" fill="#1e1e1e"/><rect x="721.5" y="320.67" width="40.08" height="40.08" fill="#2a2a2a"/><polygon points="721.5,320.67 761.58,360.75 721.5,360.75" fill="#2b2b2b"/><rect x="801.67" y="320.67" width="80.17" height="80.17" fill="#202020"/><polygon points="801.67,320.67 881.8399999999999,320.67 881.8399999999999,400.84000000000003" fill="#212121"/><rect x="881.83" y="320.67" width="80.17" height="80.17" fill="#262626"/><polygon points="881.83,320.67 962,320.67 881.83,400.84000000000003" fill="#2a2a2a"/><rect x="962" y="320.67" width="80.17" height="80.17" fill="#2e2e2e"/><polygon points="962,320.67 1042.17,400.84000000000003 962,400.84000000000003" fill="#1f1f1f"/><rect x="0" y="400.83333333333337" width="80.16666666666667" height="80.16666666666667" fill="#1e1e1e"/><rect x="0" y="400.83" width="40.08" height="40.08" fill="#1f1f1f"/><polygon points="0,400.83 40.08,400.83 40.08,440.90999999999997" fill="#313131"/><rect x="40.08" y="400.83" width="40.08" height="40.08" fill="#252525"/><polygon points="40.08,400.83 80.16,400.83 80.16,440.90999999999997" fill="#202020"/><rect x="0" y="440.92" width="40.08" height="40.08" fill="#282828"/><polygon points="0,440.92 40.08,440.92 0,481" fill="#292929"/><rect x="40.08" y="440.92" width="40.08" height="40.08" fill="#262626"/><polygon points="40.08,440.92 80.16,481 40.08,481" fill="#2d2d2d"/><rect x="80.17" y="400.83" width="80.17" height="80.17" fill="#2a2a2a"/><polygon points="160.34,400.83 160.34,481 80.17,481" fill="#313131"/><rect x="160.33" y="400.83" width="80.17" height="80.17" fill="#333333"/><polygon points="160.33,400.83 240.5,481 160.33,481" fill="#2a2a2a"/><rect x="240.5" y="400.83" width="80.17" height="80.17" fill="#212121"/><polygon points="240.5,400.83 320.67,400.83 320.67,481" fill="#252525"/><rect x="320.6666666666667" y="400.83333333333337" width="80.16666666666667" height="80.16666666666667" fill="#1e1e1e"/><rect x="320.67" y="400.83" width="40.08" height="40.08" fill="#222222"/><polygon points="360.75,400.83 360.75,440.90999999999997 320.67,440.90999999999997" fill="#2b2b2b"/><rect x="360.75" y="400.83" width="40.08" height="40.08" fill="#202020"/><polygon points="360.75,400.83 400.83,400.83 400.83,440.90999999999997" fill="#242424"/><rect x="320.67" y="440.92" width="40.08" height="40.08" fill="#292929"/><polygon points="320.67,440.92 360.75,440.92 320.67,481" fill="#262626"/><rect x="360.75" y="440.92" width="40.08" height="40.08" fill="#232323"/><polygon points="360.75,440.92 400.83,440.92 360.75,481" fill="#272727"/><rect x="400.83" y="400.83" width="80.17" height="80.17" fill="#2e2e2e"/><polygon points="481,400.83 481,481 400.83,481" fill="#333333"/><rect x="481" y="400.83" width="80.17" height="80.17" fill="#2b2b2b"/><polygon points="561.17,400.83 561.17,481 481,481" fill="#2b2b2b"/><rect x="561.1666666666667" y="400.83333333333337" width="80.16666666666667" height="80.16666666666667" fill="#1e1e1e"/><rect x="561.17" y="400.83" width="40.08" height="40.08" fill="#242424"/><polygon points="601.25,400.83 601.25,440.90999999999997 561.17,440.90999999999997" fill="#292929"/><rect x="601.25" y="400.83" width="40.08" height="40.08" fill="#2e2e2e"/><polygon points="601.25,400.83 641.33,400.83 601.25,440.90999999999997" fill="#242424"/><rect x="561.17" y="440.92" width="40.08" height="40.08" fill="#2a2a2a"/><polygon points="561.17,440.92 601.25,481 561.17,481" fill="#252525"/><rect x="601.25" y="440.92" width="40.08" height="40.08" fill="#1f1f1f"/><polygon points="601.25,440.92 641.33,440.92 601.25,481" fill="#2d2d2d"/><rect x="641.3333333333334" y="400.83333333333337" width="80.16666666666667" height="80.16666666666667" fill="#1e1e1e"/><rect x="641.33" y="400.83" width="40.08" height="40.08" fill="#2e2e2e"/><polygon points="641.33,400.83 681.4100000000001,400.83 641.33,440.90999999999997" fill="#292929"/><rect x="681.42" y="400.83" width="40.08" height="40.08" fill="#202020"/><polygon points="681.42,400.83 721.5,400.83 721.5,440.90999999999997" fill="#262626"/><rect x="641.33" y="440.92" width="40.08" height="40.08" fill="#252525"/><polygon points="641.33,440.92 681.4100000000001,440.92 641.33,481" fill="#313131"/><rect x="681.42" y="440.92" width="40.08" height="40.08" fill="#282828"/><polygon points="721.5,440.92 721.5,481 681.42,481" fill="#262626"/><rect x="721.5" y="400.83" width="80.17" height="80.17" fill="#242424"/><polygon points="721.5,400.83 801.67,481 721.5,481" fill="#262626"/><rect x="801.67" y="400.83" width="80.17" height="80.17" fill="#282828"/><polygon points="801.67,400.83 881.8399999999999,481 801.67,481" fill="#303030"/><rect x="881.8333333333334" y="400.83333333333337" width="80.16666666666667" height="80.16666666666667" fill="#1e1e1e"/><rect x="881.83" y="400.83" width="40.08" height="40.08" fill="#242424"/><polygon points="881.83,400.83 921.9100000000001,440.90999999999997 881.83,440.90999999999997" fill="#252525"/><rect x="921.92" y="400.83" width="40.08" height="40.08" fill="#2c2c2c"/><polygon points="921.92,400.83 962,440.90999999999997 921.92,440.90999999999997" fill="#2a2a2a"/><rect x="881.83" y="440.92" width="40.08" height="40.08" fill="#242424"/><polygon points="881.83,440.92 921.9100000000001,481 881.83,481" fill="#212121"/><rect x="921.92" y="440.92" width="40.08" height="40.08" fill="#1f1f1f"/><polygon points="921.92,440.92 962,440.92 921.92,481" fill="#292929"/><rect x="962" y="400.83" width="80.17" height="80.17" fill="#202020"/><polygon points="962,400.83 1042.17,481 962,481" fill="#2e2e2e"/></g></svg>