<?xml version="1.0" standalone="no"?><svg xmlns:xlink="http://www.w3.org/1999/xlink" xmlns="http://www.w3.org/2000/svg" viewBox="0 0 1600 9600.307369508295" preserveAspectRatio="xMaxYMax slice"><g transform="scale(19.959058980266725)"><rect x="0" y="0" width="80.16666666666667" height="481" fill="#1e1e1e"/><rect x="0" y="80.17" width="80.17" height="80.17" fill="#202020"/><polygon points="0,80.17 80.17,160.34 0,160.34" fill="#232323"/><rect x="0" y="160.33333333333334" width="80.16666666666667" height="80.16666666666667" fill="#1e1e1e"/><rect x="0" y="160.33" width="40.08" height="40.08" fill="#282828"/><polygon points="0,160.33 40.08,200.41000000000003 0,200.41000000000003" fill="#313131"/><rect x="0" y="200.42" width="40.08" height="40.08" fill="#303030"/><polygon points="40.08,200.42 40.08,240.5 0,240.5" fill="#262626"/><rect x="0" y="240.5" width="80.16666666666667" height="80.16666666666667" fill="#1e1e1e"/><rect x="40.08" y="240.5" width="40.08" height="40.08" fill="#292929"/><polygon points="40.08,240.5 80.16,280.58 40.08,280.58" fill="#292929"/><rect x="40.08" y="280.58" width="40.08" height="40.08" fill="#2d2d2d"/><polygon points="80.16,280.58 80.16,320.65999999999997 40.08,320.65999999999997" fill="#1f1f1f"/><rect x="0" y="320.67" width="80.17" height="80.17" fill="#202020"/><polygon points="0,320.67 80.17,320.67 0,400.84000000000003" fill="#272727"/><rect x="0" y="400.83" width="80.17" height="80.17" fill="#313131"/><polygon points="0,400.83 80.17,400.83 0,481" fill="#1e1e1e"/></g></svg>