<?xml version="1.0" standalone="no"?><svg xmlns:xlink="http://www.w3.org/1999/xlink" xmlns="http://www.w3.org/2000/svg" viewBox="0 0 1600 888.8919689026411" preserveAspectRatio="xMaxYMax slice"><g transform="scale(1.8480082513568423)"><rect x="0" y="0" width="865.8000000000001" height="481" fill="#1e1e1e"/><rect x="0" y="0" width="96.2" height="96.2" fill="#1e1313"/><polygon points="96.2,0 96.2,96.2 0,96.2" fill="#1e1c1c"/><rect x="96.2" y="0" width="96.2" height="96.2" fill="#1e1c1c"/><polygon points="96.2,0 192.4,96.2 96.2,96.2" fill="#1e1717"/><rect x="192.4" y="0" width="96.2" height="96.2" fill="#1e1313"/><polygon points="192.4,0 288.6,96.2 192.4,96.2" fill="#1e1a1a"/><rect x="288.6" y="0" width="96.2" height="96.2" fill="#1e1818"/><polygon points="288.6,0 384.8,96.2 288.6,96.2" fill="#1e1313"/><rect x="384.8" y="0" width="96.2" height="96.2" fill="#1e1313"/><polygon points="384.8,0 481,96.2 384.8,96.2" fill="#1e1a1a"/><rect x="481" y="0" width="96.2" height="96.2" fill="#1e1414"/><polygon points="481,0 577.2,0 577.2,96.2" fill="#1e1c1c"/><rect x="577.2" y="0" width="96.2" height="96.2" fill="#1e1414"/><polygon points="577.2,0 673.4000000000001,96.2 577.2,96.2" fill="#1e1b1b"/><rect x="673.4" y="0" width="96.2" height="96.2" fill="#1e1313"/><polygon points="673.4,0 769.6,96.2 673.4,96.2" fill="#1e1313"/><rect x="769.6" y="0" width="96.2" height="96.2" fill="#1e1414"/><polygon points="769.6,0 865.8000000000001,0 865.8000000000001,96.2" fill="#1e1717"/><rect x="0" y="96.2" width="96.2" height="96.2" fill="#1e1818"/><polygon points="0,96.2 96.2,96.2 96.2,192.4" fill="#1e1d1d"/><rect x="96.2" y="96.2" width="96.2" height="96.2" fill="#1e1818"/><polygon points="192.4,96.2 192.4,192.4 96.2,192.4" fill="#1e1e1e"/><rect x="192.4" y="96.2" width="96.2" height="96.2" fill="#1e1c1c"/><polygon points="192.4,96.2 288.6,96.2 288.6,192.4" fill="#1e1b1b"/><rect x="288.6" y="96.2" width="96.2" height="96.2" fill="#1e1c1c"/><polygon points="288.6,96.2 384.8,96.2 384.8,192.4" fill="#1e1818"/><rect x="384.8" y="96.2" width="96.2" height="96.2" fill="#1e1313"/><polygon points="384.8,96.2 481,192.4 384.8,192.4" fill="#1e1313"/><rect x="481" y="96.2" width="96.2" height="96.2" fill="#1e1313"/><polygon points="481,96.2 577.2,192.4 481,192.4" fill="#1e1717"/><rect x="577.2" y="96.2" width="96.2" height="96.2" fill="#1e1414"/><polygon points="577.2,96.2 673.4000000000001,96.2 577.2,192.4" fill="#1e1c1c"/><rect x="673.4" y="96.2" width="96.2" height="96.2" fill="#1e1616"/><polygon points="673.4,96.2 769.6,96.2 673.4,192.4" fill="#1e1818"/><rect x="769.6" y="96.2" width="96.2" height="96.2" fill="#1e1313"/><polygon points="769.6,96.2 865.8000000000001,96.2 865.8000000000001,192.4" fill="#1e1616"/><rect x="0" y="192.4" width="96.2" height="96.2" fill="#1e1515"/><polygon points="0,192.4 96.2,288.6 0,288.6" fill="#1e1919"/><rect x="96.2" y="192.4" width="96.2" height="96.2" fill="#1e1d1d"/><polygon points="192.4,192.4 192.4,288.6 96.2,288.6" fill="#1e1616"/><rect x="192.4" y="192.4" width="96.2" height="96.2" fill="#1e1616"/><polygon points="192.4,192.4 288.6,288.6 192.4,288.6" fill="#1e1b1b"/><rect x="288.6" y="192.4" width="96.2" height="96.2" fill="#1e1313"/><polygon points="384.8,192.4 384.8,288.6 288.6,288.6" fill="#1e1818"/><rect x="384.8" y="192.4" width="96.2" height="96.2" fill="#1e1919"/><polygon points="481,192.4 481,288.6 384.8,288.6" fill="#1e1212"/><rect x="481" y="192.4" width="96.2" height="96.2" fill="#1e1414"/><polygon points="481,192.4 577.2,192.4 481,288.6" fill="#1e1d1d"/><rect x="577.2" y="192.4" width="96.2" height="96.2" fill="#1e1d1d"/><polygon points="673.4000000000001,192.4 673.4000000000001,288.6 577.2,288.6" fill="#1e1d1d"/><rect x="673.4" y="192.4" width="96.2" height="96.2" fill="#1e1818"/><polygon points="673.4,192.4 769.6,288.6 673.4,288.6" fill="#1e1717"/><rect x="769.6" y="192.4" width="96.2" height="96.2" fill="#1e1212"/><polygon points="769.6,192.4 865.8000000000001,192.4 769.6,288.6" fill="#1e1212"/><rect x="0" y="288.6" width="96.2" height="96.2" fill="#1e1515"/><polygon points="96.2,288.6 96.2,384.8 0,384.8" fill="#1e1414"/><rect x="96.2" y="288.6" width="96.2" height="96.2" fill="#1e1313"/><polygon points="96.2,288.6 192.4,384.8 96.2,384.8" fill="#1e1616"/><rect x="192.4" y="288.6" width="96.2" height="96.2" fill="#1e1b1b"/><polygon points="192.4,288.6 288.6,288.6 192.4,384.8" fill="#1e1313"/><rect x="288.6" y="288.6" width="96.2" height="96.2" fill="#1e1e1e"/><polygon points="288.6,288.6 384.8,384.8 288.6,384.8" fill="#1e1c1c"/><rect x="384.8" y="288.6" width="96.2" height="96.2" fill="#1e1a1a"/><polygon points="384.8,288.6 481,288.6 481,384.8" fill="#1e1111"/><rect x="481" y="288.6" width="96.2" height="96.2" fill="#1e1919"/><polygon points="481,288.6 577.2,288.6 481,384.8" fill="#1e1212"/><rect x="577.2" y="288.6" width="96.2" height="96.2" fill="#1e1717"/><polygon points="673.4000000000001,288.6 673.4000000000001,384.8 577.2,384.8" fill="#1e1414"/><rect x="673.4" y="288.6" width="96.2" height="96.2" fill="#1e1414"/><polygon points="673.4,288.6 769.6,288.6 769.6,384.8" fill="#1e1717"/><rect x="769.6" y="288.6" width="96.2" height="96.2" fill="#1e1717"/><polygon points="769.6,288.6 865.8000000000001,288.6 769.6,384.8" fill="#1e1818"/><rect x="0" y="384.8" width="96.2" height="96.2" fill="#1e1818"/><polygon points="96.2,384.8 96.2,481 0,481" fill="#1e1e1e"/><rect x="96.2" y="384.8" width="96.2" height="96.2" fill="#1e1313"/><polygon points="96.2,384.8 192.4,384.8 192.4,481" fill="#1e1111"/><rect x="192.4" y="384.8" width="96.2" height="96.2" fill="#1e1414"/><polygon points="192.4,384.8 288.6,384.8 288.6,481" fill="#1e1212"/><rect x="288.6" y="384.8" width="96.2" height="96.2" fill="#1e1414"/><polygon points="384.8,384.8 384.8,481 288.6,481" fill="#1e1313"/><rect x="384.8" y="384.8" width="96.2" height="96.2" fill="#1e1515"/><polygon points="384.8,384.8 481,384.8 384.8,481" fill="#1e1313"/><rect x="481" y="384.8" width="96.2" height="96.2" fill="#1e1515"/><polygon points="481,384.8 577.2,384.8 577.2,481" fill="#1e1717"/><rect x="577.2" y="384.8" width="96.2" height="96.2" fill="#1e1c1c"/><polygon points="577.2,384.8 673.4000000000001,481 577.2,481" fill="#1e1b1b"/><rect x="673.4" y="384.8" width="96.2" height="96.2" fill="#1e1b1b"/><polygon points="673.4,384.8 769.6,481 673.4,481" fill="#1e1414"/><rect x="769.6" y="384.8" width="96.2" height="96.2" fill="#1e1212"/><polygon points="769.6,384.8 865.8000000000001,384.8 865.8000000000001,481" fill="#1e1d1d"/></g></svg>