<?xml version="1.0" standalone="no"?><svg xmlns:xlink="http://www.w3.org/1999/xlink" xmlns="http://www.w3.org/2000/svg" viewBox="0 0 1000 428.5671506352087" preserveAspectRatio="xMaxYMax slice"><g transform="scale(0.9074410163339383)"><rect x="0" y="0" width="1180.7142857142856" height="472.2857142857142" fill="#ffffff"/><polygon points="78.71,0 78.71,78.71 0,78.71" fill="#030303"/><polygon points="78.71,0 157.42,78.71 78.71,78.71" fill="#ffffff"/><rect x="157.42857142857142" y="0" width="78.71428571428571" height="78.71428571428571" fill="#ffffff"/><polygon points="157.43,0 196.79000000000002,0 157.43,39.36" fill="#ffffff"/><polygon points="196.79,0 236.14999999999998,0 236.14999999999998,39.36" fill="#ffffff"/><polygon points="157.43,39.36 196.79000000000002,78.72 157.43,78.72" fill="#959595"/><polygon points="196.79,39.36 236.14999999999998,78.72 196.79,78.72" fill="#ffffff"/><rect x="236.1428571428571" y="0" width="78.71428571428571" height="78.71428571428571" fill="#ffffff"/><polygon points="275.5,0 275.5,39.36 236.14,39.36" fill="#494949"/><polygon points="275.5,0 314.86,0 275.5,39.36" fill="#ffffff"/><polygon points="236.14,39.36 275.5,39.36 236.14,78.72" fill="#767676"/><polygon points="275.5,39.36 314.86,39.36 275.5,78.72" fill="#010101"/><rect x="314.85714285714283" y="0" width="78.71428571428571" height="78.71428571428571" fill="#ffffff"/><polygon points="314.86,0 354.22,39.36 314.86,39.36" fill="#ffffff"/><polygon points="354.21,0 393.57,0 393.57,39.36" fill="#818181"/><polygon points="354.22,39.36 354.22,78.72 314.86,78.72" fill="#ffffff"/><polygon points="393.57,39.36 393.57,78.72 354.21,78.72" fill="#ffffff"/><polygon points="393.57,0 472.28,0 393.57,78.71" fill="#ffffff"/><polygon points="472.29,0 551,0 551,78.71" fill="#5b5b5b"/><rect x="551" y="0" width="78.71428571428571" height="78.71428571428571" fill="#ffffff"/><polygon points="590.36,0 590.36,39.36 551,39.36" fill="#ffffff"/><polygon points="590.36,0 629.72,0 629.72,39.36" fill="#ffffff"/><polygon points="590.36,39.36 590.36,78.72 551,78.72" fill="#ffffff"/><polygon points="629.72,39.36 629.72,78.72 590.36,78.72" fill="#f6f6f6"/><rect x="629.7142857142857" y="0" width="78.71428571428571" height="78.71428571428571" fill="#ffffff"/><polygon points="629.71,0 669.07,0 629.71,39.36" fill="#ffffff"/><polygon points="669.07,0 708.4300000000001,0 669.07,39.36" fill="#ffffff"/><polygon points="629.71,39.36 669.07,78.72 629.71,78.72" fill="#242424"/><polygon points="669.07,39.36 708.4300000000001,78.72 669.07,78.72" fill="#4d4d4d"/><rect x="708.4285714285713" y="0" width="78.71428571428571" height="78.71428571428571" fill="#ffffff"/><polygon points="708.43,0 747.79,39.36 708.43,39.36" fill="#d1d1d1"/><polygon points="787.15,0 787.15,39.36 747.79,39.36" fill="#ffffff"/><polygon points="747.79,39.36 747.79,78.72 708.43,78.72" fill="#ffffff"/><polygon points="787.15,39.36 787.15,78.72 747.79,78.72" fill="#545454"/><polygon points="865.85,0 865.85,78.71 787.14,78.71" fill="#ffffff"/><polygon points="865.86,0 944.57,0 944.57,78.71" fill="#eeeeee"/><rect x="944.5714285714284" y="0" width="78.71428571428571" height="78.71428571428571" fill="#ffffff"/><polygon points="944.57,0 983.9300000000001,0 983.9300000000001,39.36" fill="#8c8c8c"/><polygon points="1023.29,0 1023.29,39.36 983.93,39.36" fill="#636363"/><polygon points="944.57,39.36 983.9300000000001,39.36 944.57,78.72" fill="#ffffff"/><polygon points="983.93,39.36 1023.29,39.36 983.93,78.72" fill="#ffffff"/><polygon points="1023.29,0 1102,0 1023.29,78.71" fill="#a5a5a5"/><polygon points="1102,0 1180.71,0 1102,78.71" fill="#ffffff"/><rect x="0" y="78.71428571428571" width="78.71428571428571" height="78.71428571428571" fill="#ffffff"/><polygon points="0,78.71 39.36,78.71 0,118.07" fill="#f3f3f3"/><polygon points="39.36,78.71 78.72,78.71 39.36,118.07" fill="#ffffff"/><polygon points="39.36,118.07 39.36,157.43 0,157.43" fill="#e0e0e0"/><polygon points="39.36,118.07 78.72,118.07 39.36,157.43" fill="#ffffff"/><polygon points="78.71,78.71 157.42,157.42 78.71,157.42" fill="#555555"/><rect x="157.42857142857142" y="78.71428571428571" width="78.71428571428571" height="78.71428571428571" fill="#ffffff"/><polygon points="157.43,78.71 196.79000000000002,118.07 157.43,118.07" fill="#ffffff"/><polygon points="196.79,78.71 236.14999999999998,78.71 196.79,118.07" fill="#ffffff"/><polygon points="157.43,118.07 196.79000000000002,118.07 157.43,157.43" fill="#878787"/><polygon points="196.79,118.07 236.14999999999998,118.07 196.79,157.43" fill="#ffffff"/><polygon points="236.14,78.71 314.84999999999997,78.71 314.84999999999997,157.42" fill="#ffffff"/><rect x="314.85714285714283" y="78.71428571428571" width="78.71428571428571" height="78.71428571428571" fill="#ffffff"/><polygon points="314.86,78.71 354.22,78.71 354.22,118.07" fill="#ffffff"/><polygon points="354.21,78.71 393.57,78.71 393.57,118.07" fill="#ffffff"/><polygon points="354.22,118.07 354.22,157.43 314.86,157.43" fill="#8f8f8f"/><polygon points="354.21,118.07 393.57,118.07 393.57,157.43" fill="#ffffff"/><polygon points="472.28,78.71 472.28,157.42 393.57,157.42" fill="#ffffff"/><rect x="472.2857142857142" y="78.71428571428571" width="78.71428571428571" height="78.71428571428571" fill="#ffffff"/><polygon points="472.29,78.71 511.65000000000003,118.07 472.29,118.07" fill="#040404"/><polygon points="511.64,78.71 551,78.71 511.64,118.07" fill="#ffffff"/><polygon points="511.65000000000003,118.07 511.65000000000003,157.43 472.29,157.43" fill="#ffffff"/><polygon points="511.64,118.07 551,118.07 551,157.43" fill="#666666"/><rect x="551" y="78.71428571428571" width="78.71428571428571" height="78.71428571428571" fill="#ffffff"/><polygon points="551,78.71 590.36,118.07 551,118.07" fill="#c0c0c0"/><polygon points="590.36,78.71 629.72,78.71 590.36,118.07" fill="#8c8c8c"/><polygon points="551,118.07 590.36,118.07 551,157.43" fill="#1d1d1d"/><polygon points="590.36,118.07 629.72,118.07 629.72,157.43" fill="#ffffff"/><rect x="629.7142857142857" y="78.71428571428571" width="78.71428571428571" height="78.71428571428571" fill="#ffffff"/><polygon points="629.71,78.71 669.07,118.07 629.71,118.07" fill="#656565"/><polygon points="669.07,78.71 708.4300000000001,78.71 669.07,118.07" fill="#ffffff"/><polygon points="669.07,118.07 669.07,157.43 629.71,157.43" fill="#6b6b6b"/><polygon points="669.07,118.07 708.4300000000001,118.07 669.07,157.43" fill="#969696"/><rect x="708.4285714285713" y="78.71428571428571" width="78.71428571428571" height="78.71428571428571" fill="#ffffff"/><polygon points="708.43,78.71 747.79,78.71 708.43,118.07" fill="#4f4f4f"/><polygon points="747.79,78.71 787.15,118.07 747.79,118.07" fill="#d4d4d4"/><polygon points="747.79,118.07 747.79,157.43 708.43,157.43" fill="#d1d1d1"/><polygon points="787.15,118.07 787.15,157.43 747.79,157.43" fill="#ffffff"/><polygon points="865.85,78.71 865.85,157.42 787.14,157.42" fill="#828282"/><rect x="865.8571428571428" y="78.71428571428571" width="78.71428571428571" height="78.71428571428571" fill="#ffffff"/><polygon points="865.86,78.71 905.22,78.71 865.86,118.07" fill="#979797"/><polygon points="905.21,78.71 944.57,78.71 944.57,118.07" fill="#a2a2a2"/><polygon points="865.86,118.07 905.22,118.07 865.86,157.43" fill="#ffffff"/><polygon points="905.21,118.07 944.57,118.07 944.57,157.43" fill="#b4b4b4"/><polygon points="944.57,78.71 1023.2800000000001,157.42 944.57,157.42" fill="#f5f5f5"/><rect x="1023.2857142857142" y="78.71428571428571" width="78.71428571428571" height="78.71428571428571" fill="#ffffff"/><polygon points="1062.6499999999999,78.71 1062.6499999999999,118.07 1023.29,118.07" fill="#9e9e9e"/><polygon points="1062.64,78.71 1102,118.07 1062.64,118.07" fill="#ffffff"/><polygon points="1062.6499999999999,118.07 1062.6499999999999,157.43 1023.29,157.43" fill="#ffffff"/><polygon points="1062.64,118.07 1102,157.43 1062.64,157.43" fill="#ffffff"/><polygon points="1102,78.71 1180.71,157.42 1102,157.42" fill="#ffffff"/><rect x="0" y="157.42857142857142" width="78.71428571428571" height="78.71428571428571" fill="#ffffff"/><polygon points="39.36,157.43 39.36,196.79000000000002 0,196.79000000000002" fill="#959595"/><polygon points="78.72,157.43 78.72,196.79000000000002 39.36,196.79000000000002" fill="#ffffff"/><polygon points="39.36,196.79 39.36,236.14999999999998 0,236.14999999999998" fill="#090909"/><polygon points="39.36,196.79 78.72,236.14999999999998 39.36,236.14999999999998" fill="#9b9b9b"/><rect x="78.71428571428571" y="157.42857142857142" width="78.71428571428571" height="78.71428571428571" fill="#ffffff"/><polygon points="78.71,157.43 118.07,157.43 78.71,196.79000000000002" fill="#ffffff"/><polygon points="157.43,157.43 157.43,196.79000000000002 118.07,196.79000000000002" fill="#121212"/><polygon points="78.71,196.79 118.07,196.79 78.71,236.14999999999998" fill="#ffffff"/><polygon points="118.07,196.79 157.43,236.14999999999998 118.07,236.14999999999998" fill="#ffffff"/><rect x="157.42857142857142" y="157.42857142857142" width="78.71428571428571" height="78.71428571428571" fill="#ffffff"/><polygon points="157.43,157.43 196.79000000000002,157.43 196.79000000000002,196.79000000000002" fill="#ffffff"/><polygon points="196.79,157.43 236.14999999999998,157.43 236.14999999999998,196.79000000000002" fill="#fefefe"/><polygon points="157.43,196.79 196.79000000000002,196.79 157.43,236.14999999999998" fill="#9c9c9c"/><polygon points="196.79,196.79 236.14999999999998,196.79 236.14999999999998,236.14999999999998" fill="#525252"/><rect x="236.1428571428571" y="157.42857142857142" width="78.71428571428571" height="78.71428571428571" fill="#ffffff"/><polygon points="236.14,157.43 275.5,157.43 236.14,196.79000000000002" fill="#4c4c4c"/><polygon points="314.86,157.43 314.86,196.79000000000002 275.5,196.79000000000002" fill="#5e5e5e"/><polygon points="236.14,196.79 275.5,236.14999999999998 236.14,236.14999999999998" fill="#ffffff"/><polygon points="275.5,196.79 314.86,196.79 275.5,236.14999999999998" fill="#ffffff"/><polygon points="393.57,157.43 393.57,236.14 314.86,236.14" fill="#e5e5e5"/><polygon points="393.57,157.43 472.28,236.14 393.57,236.14" fill="#ffffff"/><polygon points="472.29,157.43 551,236.14 472.29,236.14" fill="#ffffff"/><polygon points="551,157.43 629.71,157.43 629.71,236.14" fill="#ffffff"/><polygon points="629.71,157.43 708.4200000000001,236.14 629.71,236.14" fill="#ffffff"/><rect x="708.4285714285713" y="157.42857142857142" width="78.71428571428571" height="78.71428571428571" fill="#ffffff"/><polygon points="708.43,157.43 747.79,196.79000000000002 708.43,196.79000000000002" fill="#ffffff"/><polygon points="747.79,157.43 787.15,157.43 747.79,196.79000000000002" fill="#e9e9e9"/><polygon points="708.43,196.79 747.79,196.79 747.79,236.14999999999998" fill="#ffffff"/><polygon points="747.79,196.79 787.15,196.79 787.15,236.14999999999998" fill="#2f2f2f"/><polygon points="787.14,157.43 865.85,157.43 787.14,236.14" fill="#ffffff"/><polygon points="944.57,157.43 944.57,236.14 865.86,236.14" fill="#6a6a6a"/><polygon points="944.57,157.43 1023.2800000000001,157.43 1023.2800000000001,236.14" fill="#f0f0f0"/><polygon points="1023.29,157.43 1102,157.43 1102,236.14" fill="#141414"/><polygon points="1102,157.43 1180.71,236.14 1102,236.14" fill="#ffffff"/><polygon points="0,236.14 78.71,314.84999999999997 0,314.84999999999997" fill="#626262"/><rect x="78.71428571428571" y="236.1428571428571" width="78.71428571428571" height="78.71428571428571" fill="#ffffff"/><polygon points="118.07,236.14 118.07,275.5 78.71,275.5" fill="#0c0c0c"/><polygon points="157.43,236.14 157.43,275.5 118.07,275.5" fill="#a1a1a1"/><polygon points="118.07,275.5 118.07,314.86 78.71,314.86" fill="#ffffff"/><polygon points="118.07,275.5 157.43,275.5 118.07,314.86" fill="#121212"/><rect x="157.42857142857142" y="236.1428571428571" width="78.71428571428571" height="78.71428571428571" fill="#ffffff"/><polygon points="196.79000000000002,236.14 196.79000000000002,275.5 157.43,275.5" fill="#818181"/><polygon points="196.79,236.14 236.14999999999998,236.14 236.14999999999998,275.5" fill="#ffffff"/><polygon points="157.43,275.5 196.79000000000002,314.86 157.43,314.86" fill="#ffffff"/><polygon points="196.79,275.5 236.14999999999998,275.5 236.14999999999998,314.86" fill="#676767"/><polygon points="314.84999999999997,236.14 314.84999999999997,314.84999999999997 236.14,314.84999999999997" fill="#676767"/><polygon points="393.57,236.14 393.57,314.84999999999997 314.86,314.84999999999997" fill="#ffffff"/><polygon points="393.57,236.14 472.28,236.14 472.28,314.84999999999997" fill="#ffffff"/><rect x="472.2857142857142" y="236.1428571428571" width="78.71428571428571" height="78.71428571428571" fill="#ffffff"/><polygon points="472.29,236.14 511.65000000000003,236.14 511.65000000000003,275.5" fill="#ffffff"/><polygon points="511.64,236.14 551,236.14 551,275.5" fill="#ffffff"/><polygon points="472.29,275.5 511.65000000000003,314.86 472.29,314.86" fill="#484848"/><polygon points="511.64,275.5 551,275.5 551,314.86" fill="#ffffff"/><polygon points="551,236.14 629.71,314.84999999999997 551,314.84999999999997" fill="#ffffff"/><polygon points="629.71,236.14 708.4200000000001,314.84999999999997 629.71,314.84999999999997" fill="#555555"/><polygon points="708.43,236.14 787.14,314.84999999999997 708.43,314.84999999999997" fill="#1a1a1a"/><polygon points="787.14,236.14 865.85,236.14 787.14,314.84999999999997" fill="#ffffff"/><polygon points="865.86,236.14 944.57,236.14 944.57,314.84999999999997" fill="#ffffff"/><rect x="944.5714285714284" y="236.1428571428571" width="78.71428571428571" height="78.71428571428571" fill="#ffffff"/><polygon points="944.57,236.14 983.9300000000001,275.5 944.57,275.5" fill="#ffffff"/><polygon points="983.93,236.14 1023.29,236.14 983.93,275.5" fill="#e1e1e1"/><polygon points="944.57,275.5 983.9300000000001,275.5 944.57,314.86" fill="#4b4b4b"/><polygon points="983.93,275.5 1023.29,314.86 983.93,314.86" fill="#111111"/><rect x="1023.2857142857142" y="236.1428571428571" width="78.71428571428571" height="78.71428571428571" fill="#ffffff"/><polygon points="1023.29,236.14 1062.6499999999999,236.14 1023.29,275.5" fill="#ffffff"/><polygon points="1062.64,236.14 1102,236.14 1102,275.5" fill="#ffffff"/><polygon points="1023.29,275.5 1062.6499999999999,275.5 1062.6499999999999,314.86" fill="#6a6a6a"/><polygon points="1062.64,275.5 1102,314.86 1062.64,314.86" fill="#222222"/><rect x="1102" y="236.1428571428571" width="78.71428571428571" height="78.71428571428571" fill="#ffffff"/><polygon points="1102,236.14 1141.36,275.5 1102,275.5" fill="#ffffff"/><polygon points="1180.7199999999998,236.14 1180.7199999999998,275.5 1141.36,275.5" fill="#666666"/><polygon points="1102,275.5 1141.36,314.86 1102,314.86" fill="#747474"/><polygon points="1180.7199999999998,275.5 1180.7199999999998,314.86 1141.36,314.86" fill="#ffffff"/><polygon points="0,314.86 78.71,393.57 0,393.57" fill="#ffffff"/><polygon points="78.71,314.86 157.42,314.86 78.71,393.57" fill="#949494"/><rect x="157.42857142857142" y="314.85714285714283" width="78.71428571428571" height="78.71428571428571" fill="#ffffff"/><polygon points="157.43,314.86 196.79000000000002,314.86 157.43,354.22" fill="#ffffff"/><polygon points="236.14999999999998,314.86 236.14999999999998,354.22 196.79,354.22" fill="#606060"/><polygon points="157.43,354.21 196.79000000000002,354.21 157.43,393.57" fill="#ffffff"/><polygon points="196.79,354.21 236.14999999999998,393.57 196.79,393.57" fill="#eaeaea"/><rect x="236.1428571428571" y="314.85714285714283" width="78.71428571428571" height="78.71428571428571" fill="#ffffff"/><polygon points="236.14,314.86 275.5,314.86 275.5,354.22" fill="#eaeaea"/><polygon points="275.5,314.86 314.86,354.22 275.5,354.22" fill="#ffffff"/><polygon points="236.14,354.21 275.5,354.21 275.5,393.57" fill="#ffffff"/><polygon points="314.86,354.21 314.86,393.57 275.5,393.57" fill="#767676"/><rect x="314.85714285714283" y="314.85714285714283" width="78.71428571428571" height="78.71428571428571" fill="#ffffff"/><polygon points="314.86,314.86 354.22,354.22 314.86,354.22" fill="#2a2a2a"/><polygon points="354.21,314.86 393.57,314.86 393.57,354.22" fill="#ffffff"/><polygon points="314.86,354.21 354.22,354.21 354.22,393.57" fill="#ffffff"/><polygon points="354.21,354.21 393.57,393.57 354.21,393.57" fill="#070707"/><polygon points="393.57,314.86 472.28,314.86 472.28,393.57" fill="#ffffff"/><rect x="472.2857142857142" y="314.85714285714283" width="78.71428571428571" height="78.71428571428571" fill="#ffffff"/><polygon points="472.29,314.86 511.65000000000003,354.22 472.29,354.22" fill="#b2b2b2"/><polygon points="511.64,314.86 551,314.86 511.64,354.22" fill="#303030"/><polygon points="472.29,354.21 511.65000000000003,354.21 511.65000000000003,393.57" fill="#ffffff"/><polygon points="511.64,354.21 551,393.57 511.64,393.57" fill="#3e3e3e"/><polygon points="551,314.86 629.71,393.57 551,393.57" fill="#1a1a1a"/><rect x="629.7142857142857" y="314.85714285714283" width="78.71428571428571" height="78.71428571428571" fill="#ffffff"/><polygon points="629.71,314.86 669.07,314.86 629.71,354.22" fill="#d1d1d1"/><polygon points="669.07,314.86 708.4300000000001,354.22 669.07,354.22" fill="#949494"/><polygon points="629.71,354.21 669.07,393.57 629.71,393.57" fill="#ffffff"/><polygon points="669.07,354.21 708.4300000000001,393.57 669.07,393.57" fill="#6a6a6a"/><rect x="708.4285714285713" y="314.85714285714283" width="78.71428571428571" height="78.71428571428571" fill="#ffffff"/><polygon points="708.43,314.86 747.79,314.86 747.79,354.22" fill="#ffffff"/><polygon points="747.79,314.86 787.15,314.86 747.79,354.22" fill="#ffffff"/><polygon points="747.79,354.21 747.79,393.57 708.43,393.57" fill="#ffffff"/><polygon points="747.79,354.21 787.15,393.57 747.79,393.57" fill="#ffffff"/><rect x="787.1428571428571" y="314.85714285714283" width="78.71428571428571" height="78.71428571428571" fill="#ffffff"/><polygon points="787.14,314.86 826.5,314.86 826.5,354.22" fill="#ededed"/><polygon points="826.5,314.86 865.86,314.86 826.5,354.22" fill="#ffffff"/><polygon points="787.14,354.21 826.5,393.57 787.14,393.57" fill="#ffffff"/><polygon points="826.5,354.21 865.86,354.21 865.86,393.57" fill="#c5c5c5"/><polygon points="865.86,314.86 944.57,393.57 865.86,393.57" fill="#696969"/><polygon points="944.57,314.86 1023.2800000000001,314.86 944.57,393.57" fill="#ffffff"/><rect x="1023.2857142857142" y="314.85714285714283" width="78.71428571428571" height="78.71428571428571" fill="#ffffff"/><polygon points="1023.29,314.86 1062.6499999999999,314.86 1062.6499999999999,354.22" fill="#d4d4d4"/><polygon points="1062.64,314.86 1102,354.22 1062.64,354.22" fill="#ffffff"/><polygon points="1023.29,354.21 1062.6499999999999,354.21 1062.6499999999999,393.57" fill="#191919"/><polygon points="1062.64,354.21 1102,354.21 1102,393.57" fill="#ffffff"/><polygon points="1180.71,314.86 1180.71,393.57 1102,393.57" fill="#2d2d2d"/><rect x="0" y="393.57142857142856" width="78.71428571428571" height="78.71428571428571" fill="#ffffff"/><polygon points="0,393.57 39.36,432.93 0,432.93" fill="#d7d7d7"/><polygon points="39.36,393.57 78.72,393.57 39.36,432.93" fill="#676767"/><polygon points="0,432.93 39.36,472.29 0,472.29" fill="#3c3c3c"/><polygon points="39.36,432.93 78.72,432.93 78.72,472.29" fill="#b5b5b5"/><rect x="78.71428571428571" y="393.57142857142856" width="78.71428571428571" height="78.71428571428571" fill="#ffffff"/><polygon points="78.71,393.57 118.07,432.93 78.71,432.93" fill="#090909"/><polygon points="118.07,393.57 157.43,393.57 118.07,432.93" fill="#757575"/><polygon points="78.71,432.93 118.07,432.93 118.07,472.29" fill="#1f1f1f"/><polygon points="157.43,432.93 157.43,472.29 118.07,472.29" fill="#ffffff"/><rect x="157.42857142857142" y="393.57142857142856" width="78.71428571428571" height="78.71428571428571" fill="#ffffff"/><polygon points="157.43,393.57 196.79000000000002,393.57 196.79000000000002,432.93" fill="#ffffff"/><polygon points="196.79,393.57 236.14999999999998,393.57 196.79,432.93" fill="#363636"/><polygon points="196.79000000000002,432.93 196.79000000000002,472.29 157.43,472.29" fill="#1b1b1b"/><polygon points="196.79,432.93 236.14999999999998,432.93 196.79,472.29" fill="#606060"/><polygon points="236.14,393.57 314.84999999999997,393.57 314.84999999999997,472.28" fill="#fdfdfd"/><polygon points="314.86,393.57 393.57,472.28 314.86,472.28" fill="#ffffff"/><polygon points="393.57,393.57 472.28,393.57 472.28,472.28" fill="#ffffff"/><rect x="472.2857142857142" y="393.57142857142856" width="78.71428571428571" height="78.71428571428571" fill="#ffffff"/><polygon points="511.65000000000003,393.57 511.65000000000003,432.93 472.29,432.93" fill="#ffffff"/><polygon points="511.64,393.57 551,432.93 511.64,432.93" fill="#ffffff"/><polygon points="472.29,432.93 511.65000000000003,432.93 472.29,472.29" fill="#f2f2f2"/><polygon points="511.64,432.93 551,432.93 551,472.29" fill="#ffffff"/><rect x="551" y="393.57142857142856" width="78.71428571428571" height="78.71428571428571" fill="#ffffff"/><polygon points="551,393.57 590.36,393.57 551,432.93" fill="#bdbdbd"/><polygon points="590.36,393.57 629.72,393.57 629.72,432.93" fill="#ffffff"/><polygon points="551,432.93 590.36,432.93 551,472.29" fill="#ffffff"/><polygon points="629.72,432.93 629.72,472.29 590.36,472.29" fill="#020202"/><rect x="629.7142857142857" y="393.57142857142856" width="78.71428571428571" height="78.71428571428571" fill="#ffffff"/><polygon points="669.07,393.57 669.07,432.93 629.71,432.93" fill="#ffffff"/><polygon points="708.4300000000001,393.57 708.4300000000001,432.93 669.07,432.93" fill="#ffffff"/><polygon points="629.71,432.93 669.07,432.93 669.07,472.29" fill="#ffffff"/><polygon points="669.07,432.93 708.4300000000001,432.93 669.07,472.29" fill="#535353"/><rect x="708.4285714285713" y="393.57142857142856" width="78.71428571428571" height="78.71428571428571" fill="#ffffff"/><polygon points="708.43,393.57 747.79,432.93 708.43,432.93" fill="#ffffff"/><polygon points="787.15,393.57 787.15,432.93 747.79,432.93" fill="#2d2d2d"/><polygon points="747.79,432.93 747.79,472.29 708.43,472.29" fill="#cecece"/><polygon points="747.79,432.93 787.15,472.29 747.79,472.29" fill="#ffffff"/><rect x="787.1428571428571" y="393.57142857142856" width="78.71428571428571" height="78.71428571428571" fill="#ffffff"/><polygon points="787.14,393.57 826.5,432.93 787.14,432.93" fill="#ffffff"/><polygon points="826.5,393.57 865.86,432.93 826.5,432.93" fill="#ffffff"/><polygon points="787.14,432.93 826.5,472.29 787.14,472.29" fill="#fdfdfd"/><polygon points="826.5,432.93 865.86,432.93 826.5,472.29" fill="#ffffff"/><rect x="865.8571428571428" y="393.57142857142856" width="78.71428571428571" height="78.71428571428571" fill="#ffffff"/><polygon points="865.86,393.57 905.22,393.57 905.22,432.93" fill="#ffffff"/><polygon points="944.57,393.57 944.57,432.93 905.21,432.93" fill="#949494"/><polygon points="865.86,432.93 905.22,432.93 865.86,472.29" fill="#131313"/><polygon points="905.21,432.93 944.57,472.29 905.21,472.29" fill="#727272"/><polygon points="1023.2800000000001,393.57 1023.2800000000001,472.28 944.57,472.28" fill="#ffffff"/><polygon points="1023.29,393.57 1102,393.57 1102,472.28" fill="#ffffff"/><polygon points="1102,393.57 1180.71,393.57 1102,472.28" fill="#ffffff"/></g></svg>